<?xml version="1.0" standalone="no"?>
<!DOCTYPE svg PUBLIC "-//W3C//DTD SVG 20010904//EN"
 "http://www.w3.org/TR/2001/REC-SVG-20010904/DTD/svg10.dtd">
<svg version="1.0" xmlns="http://www.w3.org/2000/svg"
 width="512.000000pt" height="512.000000pt" viewBox="0 0 512.000000 512.000000"
 preserveAspectRatio="xMidYMid meet">
<metadata>
Created by potrace 1.14, written by Peter Selinger 2001-2017
</metadata>
<g transform="translate(0.000000,512.000000) scale(0.100000,-0.100000)"
fill="#000000" stroke="none">
<path d="M1243 5108 c-15 -7 -29 -32 -42 -72 -26 -80 -50 -211 -45 -249 4 -33
30 -67 51 -67 10 0 13 -20 14 -77 1 -43 2 -87 3 -98 1 -11 -8 -25 -19 -30 -11
-6 -26 -23 -33 -38 -12 -24 -10 -40 11 -125 14 -54 41 -134 61 -178 l37 -80
-54 -140 c-30 -76 -107 -292 -172 -479 -64 -187 -120 -349 -125 -360 -5 -11
-29 -69 -55 -130 -86 -206 -182 -343 -270 -385 -38 -18 -57 -23 -111 -29 -6 0
-21 -10 -33 -20 -38 -33 -30 -134 18 -236 76 -162 232 -258 475 -290 59 -7 66
-11 66 -33 0 -24 37 -82 73 -116 41 -38 105 -66 154 -68 l39 -1 17 -64 c9 -35
32 -87 51 -116 l34 -54 -87 -89 c-108 -110 -154 -167 -220 -268 -55 -85 -62
-115 -32 -145 19 -19 19 -20 -14 -88 -19 -37 -39 -80 -44 -95 -8 -22 -16 -28
-38 -28 -53 -1 -72 -31 -109 -174 -40 -155 -56 -298 -58 -505 l0 -133 28 -24
c17 -15 37 -23 52 -21 29 4 64 31 64 51 0 7 10 15 23 18 18 3 1260 0 1372 -4
32 -1 403 0 470 1 22 0 343 2 714 3 l674 3 9 -27 c17 -48 82 -61 118 -23 22
24 23 31 23 157 -1 324 -45 537 -166 803 -80 177 -191 337 -343 494 l-92 96
28 41 c27 39 70 148 70 177 0 9 11 14 29 15 112 3 208 79 245 194 3 10 16 18
28 19 13 0 30 2 38 4 8 1 35 6 60 10 62 9 170 47 226 80 123 72 206 190 221
315 3 25 7 52 8 60 3 22 -21 67 -41 74 -10 4 -33 9 -53 12 -58 9 -113 40 -166
95 -46 47 -52 51 -87 46 -38 -5 -38 -5 -77 62 -42 71 -60 121 -43 121 5 0 15
13 21 28 11 25 5 47 -53 203 -56 151 -105 291 -213 609 -14 41 -50 138 -79
215 l-55 139 34 76 c119 260 135 596 41 881 -20 62 -46 73 -153 65 -44 -4 -86
-9 -93 -11 -7 -3 -26 -7 -43 -9 -117 -15 -317 -89 -434 -161 l-57 -36 -68 16
c-181 42 -339 21 -468 -63 -37 -24 -38 -24 -65 -6 -65 43 -130 70 -198 82 -89
15 -240 4 -325 -23 -11 -4 -40 6 -72 25 -29 17 -60 35 -68 40 -74 42 -241 100
-360 124 -105 21 -240 28 -267 14z"/>
</g>
</svg>
